<?xml version="1.0" encoding="UTF-8"?>
<svg version="1.1" xmlns="http://www.w3.org/2000/svg" width="132" height="132">
<path d="M0 0 C7.42857143 -0.28571429 7.42857143 -0.28571429 11 2 C11.33 1.34 11.66 0.68 12 0 C14.375 0.1875 14.375 0.1875 17 1 C18.3125 3.5625 18.3125 3.5625 19 6 C19.33 4.02 19.66 2.04 20 0 C20.99 0 21.98 0 23 0 C23.33 0.66 23.66 1.32 24 2 C24.66 1.34 25.32 0.68 26 0 C27.32 0 28.64 0 30 0 C29.67 0.598125 29.34 1.19625 29 1.8125 C27.79212012 4.05386471 27.79212012 4.05386471 28 7 C28.33 7.66 28.66 8.32 29 9 C30.32 6.03 31.64 3.06 33 0 C35.3125 0 35.3125 0 38 1 C40.02127487 4.52143981 41 7.95264611 41 12 C39.68 12 38.36 12 37 12 C37 11.34 37 10.68 37 10 C35.68 10 34.36 10 33 10 C33 10.66 33 11.32 33 12 C29.625 12.125 29.625 12.125 26 12 C25.34 11.34 24.68 10.68 24 10 C23.67 10.66 23.34 11.32 23 12 C20.69 12 18.38 12 16 12 C16 11.34 16 10.68 16 10 C14.68 10 13.36 10 12 10 C12 10.66 12 11.32 12 12 C10.68 12 9.36 12 8 12 C8 10.68 8 9.36 8 8 C6.68 8 5.36 8 4 8 C4 9.32 4 10.64 4 12 C2.68 12 1.36 12 0 12 C0 8.04 0 4.08 0 0 Z M4 3 C4 3.66 4 4.32 4 5 C4.66 4.67 5.32 4.34 6 4 C5.34 3.67 4.68 3.34 4 3 Z " fill="#000000" transform="translate(75,53)"/>
<path d="M0 0 C4.66666667 0 9.33333333 0 14 0 C14.33 0.66 14.66 1.32 15 2 C15.66 1.34 16.32 0.68 17 0 C21.87075794 -0.66489712 26.4607602 -0.90955079 30.75 1.625 C32.44231677 4.84040186 32.04260838 6.57428675 31 10 C29 12 29 12 26.25 12.265625 C25.1775 12.26046875 24.105 12.2553125 23 12.25 C21.39125 12.25773437 21.39125 12.25773437 19.75 12.265625 C17 12 17 12 15 10 C14.67 10.66 14.34 11.32 14 12 C13.21625 11.814375 12.4325 11.62875 11.625 11.4375 C9.02910225 10.74037734 9.02910225 10.74037734 7 12 C4.6670134 12.04022391 2.33293334 12.04320247 0 12 C0 8.04 0 4.08 0 0 Z M3 3 C3 4.98 3 6.96 3 9 C4.32 8.34 5.64 7.68 7 7 C6.67 6.01 6.34 5.02 6 4 C5.01 3.67 4.02 3.34 3 3 Z M19 3 C18.01 4.485 18.01 4.485 17 6 C17.99 6.99 18.98 7.98 20 9 C20 7.02 20 5.04 20 3 C19.67 3 19.34 3 19 3 Z M25 3 C24.67 4.65 24.34 6.3 24 8 C25.32 8 26.64 8 28 8 C27.65213292 6.02463255 27.65213292 6.02463255 27 4 C26.34 3.67 25.68 3.34 25 3 Z " fill="#000000" transform="translate(40,53)"/>
<path d="M0 0 C4.66666667 0 9.33333333 0 14 0 C14 2.97 14 5.94 14 9 C14.66 9 15.32 9 16 9 C16 6.03 16 3.06 16 0 C18.64 0 21.28 0 24 0 C24 3.96 24 7.92 24 12 C21.525 11.505 21.525 11.505 19 11 C18.67 11.33 18.34 11.66 18 12 C16.00047242 12.04346799 13.99960012 12.039992 12 12 C11.01 12 10.02 12 9 12 C6 12 3 12 0 12 C0 8.04 0 4.08 0 0 Z M4 3 C4.33 3.66 4.66 4.32 5 5 C5.33 4.34 5.66 3.68 6 3 C5.34 3 4.68 3 4 3 Z M4 7 C4 7.66 4 8.32 4 9 C4.66 9 5.32 9 6 9 C6 8.34 6 7.68 6 7 C5.34 7 4.68 7 4 7 Z " fill="#000000" transform="translate(15,53)"/>
<path d="M0 0 C5.94 0 11.88 0 18 0 C18 1.65 18 3.3 18 5 C17.34 5 16.68 5 16 5 C15.67 4.01 15.34 3.02 15 2 C14.67 2.99 14.34 3.98 14 5 C13.34 5 12.68 5 12 5 C11.67 4.34 11.34 3.68 11 3 C10.401875 3.33 9.80375 3.66 9.1875 4 C5.87214475 5.51559097 3.38650808 4.93420912 0 4 C0 2.68 0 1.36 0 0 Z " fill="#050504" transform="translate(65,68)"/>
<path d="M0 0 C3.3 0 6.6 0 10 0 C10 1.65 10 3.3 10 5 C8.35 5 6.7 5 5 5 C5 4.01 5 3.02 5 2 C4.34 2 3.68 2 3 2 C3 2.99 3 3.98 3 5 C2.34 5 1.68 5 1 5 C0.67 3.35 0.34 1.7 0 0 Z " fill="#050505" transform="translate(54,68)"/>
<path d="M0 0 C1.65 0 3.3 0 5 0 C5 1.65 5 3.3 5 5 C3.35 5 1.7 5 0 5 C0 3.35 0 1.7 0 0 Z " fill="#050505" transform="translate(90,68)"/>
<path d="M0 0 C1.65 0 3.3 0 5 0 C5 1.65 5 3.3 5 5 C3.35 5 1.7 5 0 5 C0 3.35 0 1.7 0 0 Z " fill="#060605" transform="translate(43,68)"/>
<path d="M0 0 C1.65 0 3.3 0 5 0 C4.67 1.65 4.34 3.3 4 5 C2.68 4.67 1.36 4.34 0 4 C0 2.68 0 1.36 0 0 Z " fill="#010101" transform="translate(37,68)"/>
<path d="M0 0 C1.32 0 2.64 0 4 0 C3.67 1.65 3.34 3.3 3 5 C1.68 4.67 0.36 4.34 -1 4 C-0.67 2.68 -0.34 1.36 0 0 Z " fill="#010101" transform="translate(85,68)"/>
<path d="M0 0 C1.32 0 2.64 0 4 0 C4.33 0.99 4.66 1.98 5 3 C4.67 3.66 4.34 4.32 4 5 C2.68 4.67 1.36 4.34 0 4 C0 2.68 0 1.36 0 0 Z " fill="#020202" transform="translate(49,68)"/>
<path d="M0 0 C1.32 0 2.64 0 4 0 C3.67 1.65 3.34 3.3 3 5 C1.68 4.34 0.36 3.68 -1 3 C-0.67 2.01 -0.34 1.02 0 0 Z " fill="#020202" transform="translate(32,68)"/>
</svg>
